<?xml version="1.0" encoding="UTF-8" standalone="no"?>
<svg width="857px" height="240px" viewBox="0 0 857 240" version="1.1" xmlns="http://www.w3.org/2000/svg" xmlns:xlink="http://www.w3.org/1999/xlink">
    <!-- Generator: Sketch 39.1 (31720) - http://www.bohemiancoding.com/sketch -->
    <title>Chronogolf-Logo-</title>
    <desc>Created with Sketch.</desc>
    <defs></defs>
    <g id="Package" stroke="none" stroke-width="1" fill="none" fill-rule="evenodd">
        <g id="Chronogolf-Logo-">
            <path d="M221.431,120.36 C219.054988,120.36 216.81101,120.799996 214.699,121.68 C212.586989,122.560004 210.717008,123.835992 209.089,125.508 C207.460992,127.180008 206.163005,129.247988 205.195,131.712 C204.226995,134.176012 203.743,137.035984 203.743,140.292 C203.743,143.548016 204.226995,146.429987 205.195,148.938 C206.163005,151.446013 207.460992,153.557991 209.089,155.274 C210.717008,156.990009 212.630989,158.287996 214.831,159.168 C217.031011,160.048004 219.318988,160.488 221.695,160.488 C224.159012,160.488 226.33699,160.092004 228.229,159.3 C230.121009,158.507996 231.704993,157.518006 232.981,156.33 C234.257006,155.141994 235.290996,153.866007 236.083,152.502 C236.875004,151.137993 237.446998,149.840006 237.799,148.608 L251.263,153.492 C250.470996,156.044013 249.283008,158.551988 247.699,161.016 C246.114992,163.480012 244.113012,165.72399 241.693,167.748 C239.272988,169.77201 236.391017,171.399994 233.047,172.632 C229.702983,173.864006 225.919021,174.48 221.695,174.48 C216.942976,174.48 212.54302,173.622009 208.495,171.906 C204.44698,170.189991 200.949015,167.792015 198.001,164.712 C195.052985,161.631985 192.721008,158.024021 191.005,153.888 C189.288991,149.751979 188.431,145.220025 188.431,140.292 C188.431,135.363975 189.266991,130.810021 190.939,126.63 C192.611008,122.449979 194.942985,118.842015 197.935,115.806 C200.927015,112.769985 204.40298,110.416008 208.363,108.744 C212.32302,107.071992 216.634977,106.236 221.299,106.236 C225.611021,106.236 229.438983,106.851994 232.783,108.084 C236.127017,109.316006 239.030988,110.92199 241.495,112.902 C243.959012,114.88201 245.938992,117.147987 247.435,119.7 C248.931007,122.252013 250.030996,124.803987 250.735,127.356 L237.007,132.372 C236.654998,130.963993 236.105004,129.534007 235.357,128.082 C234.608996,126.629993 233.597006,125.332006 232.321,124.188 C231.044993,123.043994 229.527009,122.120004 227.767,121.416 C226.006991,120.711996 223.895012,120.36 221.431,120.36 L221.431,120.36 Z M277.321,172.5 L262.009,172.5 L262.009,76.932 L277.321,76.932 L277.321,114.42 C279.521011,111.603986 282.292983,109.558006 285.637,108.282 C288.981017,107.005994 292.324983,106.368 295.669,106.368 C299.62902,106.368 303.082985,107.027993 306.031,108.348 C308.979015,109.668007 311.42099,111.493988 313.357,113.826 C315.29301,116.158012 316.744995,118.863985 317.713,121.944 C318.681005,125.024015 319.165,128.323982 319.165,131.844 L319.165,172.5 L303.853,172.5 L303.853,134.484 C303.853,130.52398 302.86301,127.158014 300.883,124.386 C298.90299,121.613986 295.493024,120.228 290.653,120.228 C286.428979,120.228 283.195011,121.613986 280.951,124.386 C278.706989,127.158014 277.497001,130.611979 277.321,134.748 L277.321,172.5 Z M372.547,123.396 C370.786991,123.131999 369.115008,123 367.531,123 C361.54697,123 357.169014,124.627984 354.397,127.884 C351.624986,131.140016 350.239,135.80397 350.239,141.876 L350.239,172.5 L334.927,172.5 L334.927,108.216 L349.843,108.216 L349.843,118.512 C351.339007,114.991982 353.758983,112.26401 357.103,110.328 C360.447017,108.39199 364.230979,107.424 368.455,107.424 C369.423005,107.424 370.258996,107.468 370.963,107.556 C371.667003,107.644 372.194998,107.732 372.547,107.82 L372.547,123.396 Z M410.089,160.752 C412.465012,160.752 414.730989,160.312004 416.887,159.432 C419.043011,158.551996 420.956992,157.254009 422.629,155.538 C424.301008,153.821991 425.620995,151.688013 426.589,149.136 C427.557005,146.583987 428.041,143.636017 428.041,140.292 C428.041,136.947983 427.557005,134.022013 426.589,131.514 C425.620995,129.005987 424.301008,126.894009 422.629,125.178 C420.956992,123.461991 419.043011,122.186004 416.887,121.35 C414.730989,120.513996 412.465012,120.096 410.089,120.096 C407.712988,120.096 405.447011,120.513996 403.291,121.35 C401.134989,122.186004 399.243008,123.461991 397.615,125.178 C395.986992,126.894009 394.667005,129.005987 393.655,131.514 C392.642995,134.022013 392.137,136.947983 392.137,140.292 C392.137,143.636017 392.642995,146.583987 393.655,149.136 C394.667005,151.688013 395.986992,153.821991 397.615,155.538 C399.243008,157.254009 401.134989,158.551996 403.291,159.432 C405.447011,160.312004 407.712988,160.752 410.089,160.752 L410.089,160.752 Z M410.089,106.236 C414.929024,106.236 419.37298,107.093991 423.421,108.81 C427.46902,110.526009 430.988985,112.901985 433.981,115.938 C436.973015,118.974015 439.304992,122.559979 440.977,126.696 C442.649008,130.832021 443.485,135.363975 443.485,140.292 C443.485,145.220025 442.649008,149.773979 440.977,153.954 C439.304992,158.134021 436.973015,161.741985 433.981,164.778 C430.988985,167.814015 427.46902,170.189991 423.421,171.906 C419.37298,173.622009 414.929024,174.48 410.089,174.48 C405.336976,174.48 400.91502,173.622009 396.823,171.906 C392.730979,170.189991 389.211015,167.814015 386.263,164.778 C383.314985,161.741985 381.005008,158.134021 379.333,153.954 C377.660992,149.773979 376.825,145.220025 376.825,140.292 C376.825,135.363975 377.660992,130.832021 379.333,126.696 C381.005008,122.559979 383.314985,118.974015 386.263,115.938 C389.211015,112.901985 392.730979,110.526009 396.823,108.81 C400.91502,107.093991 405.336976,106.236 410.089,106.236 L410.089,106.236 Z M470.731,172.5 L455.419,172.5 L455.419,108.216 L470.335,108.216 L470.335,116.796 C472.447011,113.099982 475.240983,110.438008 478.717,108.81 C482.193017,107.181992 485.734982,106.368 489.343,106.368 C493.30302,106.368 496.734985,107.027993 499.639,108.348 C502.543015,109.668007 504.940991,111.493988 506.833,113.826 C508.725009,116.158012 510.154995,118.863985 511.123,121.944 C512.091005,125.024015 512.575,128.323982 512.575,131.844 L512.575,172.5 L497.263,172.5 L497.263,134.484 C497.263,130.52398 496.27301,127.158014 494.293,124.386 C492.31299,121.613986 488.903024,120.228 484.063,120.228 C479.662978,120.228 476.341011,121.701985 474.097,124.65 C471.852989,127.598015 470.731,131.183979 470.731,135.408 L470.731,172.5 Z M556.585,160.752 C558.961012,160.752 561.226989,160.312004 563.383,159.432 C565.539011,158.551996 567.452992,157.254009 569.125,155.538 C570.797008,153.821991 572.116995,151.688013 573.085,149.136 C574.053005,146.583987 574.537,143.636017 574.537,140.292 C574.537,136.947983 574.053005,134.022013 573.085,131.514 C572.116995,129.005987 570.797008,126.894009 569.125,125.178 C567.452992,123.461991 565.539011,122.186004 563.383,121.35 C561.226989,120.513996 558.961012,120.096 556.585,120.096 C554.208988,120.096 551.943011,120.513996 549.787,121.35 C547.630989,122.186004 545.739008,123.461991 544.111,125.178 C542.482992,126.894009 541.163005,129.005987 540.151,131.514 C539.138995,134.022013 538.633,136.947983 538.633,140.292 C538.633,143.636017 539.138995,146.583987 540.151,149.136 C541.163005,151.688013 542.482992,153.821991 544.111,155.538 C545.739008,157.254009 547.630989,158.551996 549.787,159.432 C551.943011,160.312004 554.208988,160.752 556.585,160.752 L556.585,160.752 Z M556.585,106.236 C561.425024,106.236 565.86898,107.093991 569.917,108.81 C573.96502,110.526009 577.484985,112.901985 580.477,115.938 C583.469015,118.974015 585.800992,122.559979 587.473,126.696 C589.145008,130.832021 589.981,135.363975 589.981,140.292 C589.981,145.220025 589.145008,149.773979 587.473,153.954 C585.800992,158.134021 583.469015,161.741985 580.477,164.778 C577.484985,167.814015 573.96502,170.189991 569.917,171.906 C565.86898,173.622009 561.425024,174.48 556.585,174.48 C551.832976,174.48 547.41102,173.622009 543.319,171.906 C539.22698,170.189991 535.707015,167.814015 532.759,164.778 C529.810985,161.741985 527.501008,158.134021 525.829,153.954 C524.156992,149.773979 523.321,145.220025 523.321,140.292 C523.321,135.363975 524.156992,130.832021 525.829,126.696 C527.501008,122.559979 529.810985,118.974015 532.759,115.938 C535.707015,112.901985 539.22698,110.526009 543.319,108.81 C547.41102,107.093991 551.832976,106.236 556.585,106.236 L556.585,106.236 Z M611.419,172.368 C611.947003,176.32802 613.640986,179.627987 616.501,182.268 C619.361014,184.908013 623.034978,186.228 627.523,186.228 C639.667061,186.228 645.739,179.804064 645.739,166.956 L645.739,160.224 C644.330993,162.776013 642.065016,164.975991 638.941,166.824 C635.816984,168.672009 631.879024,169.596 627.127,169.596 C622.814978,169.596 618.855018,168.804008 615.247,167.22 C611.638982,165.635992 608.515013,163.458014 605.875,160.686 C603.234987,157.913986 601.167008,154.614019 599.671,150.786 C598.174993,146.957981 597.427,142.800022 597.427,138.312 C597.427,133.999978 598.152993,129.952019 599.605,126.168 C601.057007,122.383981 603.080987,119.084014 605.677,116.268 C608.273013,113.451986 611.396982,111.208008 615.049,109.536 C618.701018,107.863992 622.726978,107.028 627.127,107.028 C632.143025,107.028 636.212984,107.929991 639.337,109.734 C642.461016,111.538009 644.726993,113.759987 646.135,116.4 L646.135,108.216 L660.919,108.216 L660.919,166.428 C660.919,170.740022 660.325006,174.87598 659.137,178.836 C657.948994,182.79602 656.057013,186.315985 653.461,189.396 C650.864987,192.476015 647.477021,194.939991 643.297,196.788 C639.116979,198.636009 633.99103,199.56 627.919,199.56 C623.694979,199.56 619.801018,198.944006 616.237,197.712 C612.672982,196.479994 609.549013,194.808011 606.865,192.696 C604.180987,190.583989 602.025008,188.098014 600.397,185.238 C598.768992,182.377986 597.735002,179.320016 597.295,176.064 L611.419,172.368 Z M629.635,156.528 C634.563025,156.528 638.544985,154.878017 641.581,151.578 C644.617015,148.277984 646.135,143.856028 646.135,138.312 C646.135,135.583986 645.717004,133.098011 644.881,130.854 C644.044996,128.609989 642.901007,126.696008 641.449,125.112 C639.996993,123.527992 638.25901,122.318004 636.235,121.482 C634.21099,120.645996 632.011012,120.228 629.635,120.228 C624.706975,120.228 620.681016,121.855984 617.557,125.112 C614.432984,128.368016 612.871,132.767972 612.871,138.312 C612.871,143.944028 614.410985,148.387984 617.491,151.644 C620.571015,154.900016 624.618975,156.528 629.635,156.528 L629.635,156.528 Z M705.061,160.752 C707.437012,160.752 709.702989,160.312004 711.859,159.432 C714.015011,158.551996 715.928992,157.254009 717.601,155.538 C719.273008,153.821991 720.592995,151.688013 721.561,149.136 C722.529005,146.583987 723.013,143.636017 723.013,140.292 C723.013,136.947983 722.529005,134.022013 721.561,131.514 C720.592995,129.005987 719.273008,126.894009 717.601,125.178 C715.928992,123.461991 714.015011,122.186004 711.859,121.35 C709.702989,120.513996 707.437012,120.096 705.061,120.096 C702.684988,120.096 700.419011,120.513996 698.263,121.35 C696.106989,122.186004 694.215008,123.461991 692.587,125.178 C690.958992,126.894009 689.639005,129.005987 688.627,131.514 C687.614995,134.022013 687.109,136.947983 687.109,140.292 C687.109,143.636017 687.614995,146.583987 688.627,149.136 C689.639005,151.688013 690.958992,153.821991 692.587,155.538 C694.215008,157.254009 696.106989,158.551996 698.263,159.432 C700.419011,160.312004 702.684988,160.752 705.061,160.752 L705.061,160.752 Z M705.061,106.236 C709.901024,106.236 714.34498,107.093991 718.393,108.81 C722.44102,110.526009 725.960985,112.901985 728.953,115.938 C731.945015,118.974015 734.276992,122.559979 735.949,126.696 C737.621008,130.832021 738.457,135.363975 738.457,140.292 C738.457,145.220025 737.621008,149.773979 735.949,153.954 C734.276992,158.134021 731.945015,161.741985 728.953,164.778 C725.960985,167.814015 722.44102,170.189991 718.393,171.906 C714.34498,173.622009 709.901024,174.48 705.061,174.48 C700.308976,174.48 695.887021,173.622009 691.795,171.906 C687.70298,170.189991 684.183015,167.814015 681.235,164.778 C678.286985,161.741985 675.977008,158.134021 674.305,153.954 C672.632992,149.773979 671.797,145.220025 671.797,140.292 C671.797,135.363975 672.632992,130.832021 674.305,126.696 C675.977008,122.559979 678.286985,118.974015 681.235,115.938 C684.183015,112.901985 687.70298,110.526009 691.795,108.81 C695.887021,107.093991 700.308976,106.236 705.061,106.236 L705.061,106.236 Z M750.391,172.5 L750.391,76.932 L765.703,76.932 L765.703,172.5 L750.391,172.5 Z M811.165,90 C810.108995,90 809.031006,90.1319987 807.931,90.396 C806.830995,90.6600013 805.819005,91.1659963 804.895,91.914 C803.970996,92.6620037 803.201003,93.6739936 802.585,94.95 C801.968997,96.2260064 801.661,97.8319903 801.661,99.768 L801.661,108.216 L816.577,108.216 L816.577,121.548 L801.661,121.548 L801.661,172.5 L786.217,172.5 L786.217,121.548 L774.997,121.548 L774.997,108.216 L786.217,108.216 L786.217,99.372 C786.217,95.763982 786.766995,92.5300143 787.867,89.67 C788.967006,86.8099857 790.50699,84.3900099 792.487,82.41 C794.46701,80.4299901 796.820987,78.9120053 799.549,77.856 C802.277014,76.7999947 805.312983,76.272 808.657,76.272 C810.59301,76.272 812.286993,76.4259985 813.739,76.734 C815.191007,77.0420015 816.180998,77.3279987 816.709,77.592 L816.709,90.66 C816.268998,90.4839991 815.609005,90.3300007 814.729,90.198 C813.848996,90.0659993 812.661008,90 811.165,90 L811.165,90 Z" id="chronogolf" fill="#333333"></path>
            <path d="M123.204137,80.4670511 C119.135113,78.7530528 114.83744,77.4739343 110.37037,76.6886498 L110.37037,68.5155686 C120.378336,66.2729779 127.407407,60.9910741 127.407407,54.8325349 C127.407407,46.6407521 114.970873,40 99.6296296,40 C84.2883866,40 71.8518519,46.6407521 71.8518519,54.8325349 C71.8518519,60.9910741 78.8809231,66.2729779 88.8888889,68.5155686 L88.8888889,76.790206 C84.6966708,77.5685529 80.656684,78.7824887 76.8184063,80.3827672 L71.7097388,71.5342955 C70.6811718,69.7527652 68.4110298,69.1458367 66.6349481,70.1712579 L56.3877012,76.0875086 C54.6082993,77.1148468 54.0040832,79.385719 55.030731,81.1639251 L60.4548384,90.5587547 C47.9237455,101.485411 40,117.514026 40,135.343703 C40,168.180021 66.8752448,194.899994 99.9100382,194.899994 C132.937171,194.899994 159.812415,168.180021 159.812415,135.343703 C159.812415,117.5907 151.962555,101.626924 139.531933,90.7049961 L145.040473,81.1639251 C146.06904,79.3823948 145.459585,77.1129299 143.683503,76.0875086 L133.436256,70.1712579 C131.656854,69.1439197 129.388113,69.7560893 128.361466,71.5342955 L123.204137,80.4670511 Z M99.9092243,182.244579 C73.893711,182.244579 52.7289567,161.202104 52.7289567,135.342894 C52.7289567,109.483684 73.893711,88.4352112 99.9092243,88.4352112 C125.924738,88.4352112 147.083459,109.477686 147.083459,135.342894 C147.083459,161.202104 125.918704,182.244579 99.9092243,182.244579 Z M99.6296296,60.7655489 C108.425276,60.7655489 115.555556,57.9432292 115.555556,54.4617215 C115.555556,50.9802138 108.425276,48.1578942 99.6296296,48.1578942 C90.8339836,48.1578942 83.7037037,50.9802138 83.7037037,54.4617215 C83.7037037,57.9432292 90.8339836,60.7655489 99.6296296,60.7655489 Z M90.085901,150.941797 C89.8678627,150.865342 89.6486557,150.810603 89.4150687,150.747871 C89.7915146,152.28411 89.7470104,153.936775 89.1723585,155.533347 C87.6700117,159.78273 83.0779122,162.139634 78.6879466,161.01552 C79.3538115,163.778699 81.4030209,166.155197 84.3331324,167.16125 C88.9072797,168.715757 93.892332,166.349875 95.4887661,161.865764 C97.0770363,157.395754 94.6604379,152.489066 90.085901,150.941797 Z M110.779803,153.167057 C110.569168,153.090978 110.342596,153.035861 110.101645,152.972752 C110.46329,154.50826 110.433558,156.161705 109.858957,157.758302 C108.356743,162.007751 103.757664,164.364315 99.3902389,163.241314 C100.056045,166.004536 102.090305,168.380318 105.020158,169.386386 C109.579133,170.940164 114.585898,168.575375 116.160038,164.090064 C117.763326,159.613499 115.353936,154.71435 110.779803,153.167057 Z M114.277641,143.081866 C115.851171,138.610912 113.441912,133.704392 108.859904,132.156681 C108.656631,132.080976 108.42265,132.025481 108.203829,131.963501 C108.565512,133.499051 108.506237,135.151032 107.946344,136.748426 C106.42842,141.011714 101.851783,143.354994 97.4761149,142.238825 C98.1346074,145.001744 100.169475,147.370351 103.114412,148.3772 C107.68126,149.931397 112.674181,147.558552 114.277641,143.081866 Z M129.027093,134.827497 C129.374404,136.35504 129.330288,138.000521 128.769991,139.605139 C127.252029,143.868386 122.660505,146.21089 118.285116,145.087493 C118.965391,147.858755 120.992925,150.226963 123.923555,151.22581 C128.50529,152.780746 133.489784,150.429263 135.086289,145.945004 C136.667244,141.474469 134.250539,136.567618 129.697955,135.021429 C129.465526,134.936979 129.246309,134.882238 129.027093,134.827497 Z M121.529076,130.442394 C126.066194,131.994975 131.065511,129.637149 132.654524,125.152781 C134.235762,120.675275 131.848758,115.770226 127.266553,114.229861 C127.040745,114.160269 126.814548,114.097916 126.588351,114.035563 C126.950409,115.563769 126.906295,117.209151 126.338262,118.820534 C124.835171,123.08428 120.258726,125.427398 115.876636,124.296452 C116.534711,127.066418 118.569104,129.442099 121.529076,130.442394 Z" id="mark" fill="#00A935"></path>
        </g>
    </g>
</svg>