<?xml version="1.0" encoding="UTF-8" standalone="no"?>
<svg width="200px" height="235px" viewBox="0 0 200 235" version="1.1" xmlns="http://www.w3.org/2000/svg" xmlns:xlink="http://www.w3.org/1999/xlink">
    <!-- Generator: Sketch 39.1 (31720) - http://www.bohemiancoding.com/sketch -->
    <title>Chronogolf-Mark-</title>
    <desc>Created with Sketch.</desc>
    <defs></defs>
    <g id="Package" stroke="none" stroke-width="1" fill="none" fill-rule="evenodd">
        <g id="Chronogolf-Mark-" fill="#00A935">
            <path d="M123.204137,80.4670511 C119.135113,78.7530528 114.83744,77.4739343 110.37037,76.6886498 L110.37037,68.5155686 C120.378336,66.2729779 127.407407,60.9910741 127.407407,54.8325349 C127.407407,46.6407521 114.970873,40 99.6296296,40 C84.2883866,40 71.8518519,46.6407521 71.8518519,54.8325349 C71.8518519,60.9910741 78.8809231,66.2729779 88.8888889,68.5155686 L88.8888889,76.790206 C84.6966708,77.5685529 80.656684,78.7824887 76.8184063,80.3827672 L71.7097388,71.5342955 C70.6811718,69.7527652 68.4110298,69.1458367 66.6349481,70.1712579 L56.3877012,76.0875086 C54.6082993,77.1148468 54.0040832,79.385719 55.030731,81.1639251 L60.4548384,90.5587547 C47.9237455,101.485411 40,117.514026 40,135.343703 C40,168.180021 66.8752448,194.899994 99.9100382,194.899994 C132.937171,194.899994 159.812415,168.180021 159.812415,135.343703 C159.812415,117.5907 151.962555,101.626924 139.531933,90.7049961 L145.040473,81.1639251 C146.06904,79.3823948 145.459585,77.1129299 143.683503,76.0875086 L133.436256,70.1712579 C131.656854,69.1439197 129.388113,69.7560893 128.361466,71.5342955 L123.204137,80.4670511 Z M99.9092243,182.244579 C73.893711,182.244579 52.7289567,161.202104 52.7289567,135.342894 C52.7289567,109.483684 73.893711,88.4352112 99.9092243,88.4352112 C125.924738,88.4352112 147.083459,109.477686 147.083459,135.342894 C147.083459,161.202104 125.918704,182.244579 99.9092243,182.244579 Z M99.6296296,60.7655489 C108.425276,60.7655489 115.555556,57.9432292 115.555556,54.4617215 C115.555556,50.9802138 108.425276,48.1578942 99.6296296,48.1578942 C90.8339836,48.1578942 83.7037037,50.9802138 83.7037037,54.4617215 C83.7037037,57.9432292 90.8339836,60.7655489 99.6296296,60.7655489 Z M90.085901,150.941797 C89.8678627,150.865342 89.6486557,150.810603 89.4150687,150.747871 C89.7915146,152.28411 89.7470104,153.936775 89.1723585,155.533347 C87.6700117,159.78273 83.0779122,162.139634 78.6879466,161.01552 C79.3538115,163.778699 81.4030209,166.155197 84.3331324,167.16125 C88.9072797,168.715757 93.892332,166.349875 95.4887661,161.865764 C97.0770363,157.395754 94.6604379,152.489066 90.085901,150.941797 Z M110.779803,153.167057 C110.569168,153.090978 110.342596,153.035861 110.101645,152.972752 C110.46329,154.50826 110.433558,156.161705 109.858957,157.758302 C108.356743,162.007751 103.757664,164.364315 99.3902389,163.241314 C100.056045,166.004536 102.090305,168.380318 105.020158,169.386386 C109.579133,170.940164 114.585898,168.575375 116.160038,164.090064 C117.763326,159.613499 115.353936,154.71435 110.779803,153.167057 Z M114.277641,143.081866 C115.851171,138.610912 113.441912,133.704392 108.859904,132.156681 C108.656631,132.080976 108.42265,132.025481 108.203829,131.963501 C108.565512,133.499051 108.506237,135.151032 107.946344,136.748426 C106.42842,141.011714 101.851783,143.354994 97.4761149,142.238825 C98.1346074,145.001744 100.169475,147.370351 103.114412,148.3772 C107.68126,149.931397 112.674181,147.558552 114.277641,143.081866 Z M129.027093,134.827497 C129.374404,136.35504 129.330288,138.000521 128.769991,139.605139 C127.252029,143.868386 122.660505,146.21089 118.285116,145.087493 C118.965391,147.858755 120.992925,150.226963 123.923555,151.22581 C128.50529,152.780746 133.489784,150.429263 135.086289,145.945004 C136.667244,141.474469 134.250539,136.567618 129.697955,135.021429 C129.465526,134.936979 129.246309,134.882238 129.027093,134.827497 Z M121.529076,130.442394 C126.066194,131.994975 131.065511,129.637149 132.654524,125.152781 C134.235762,120.675275 131.848758,115.770226 127.266553,114.229861 C127.040745,114.160269 126.814548,114.097916 126.588351,114.035563 C126.950409,115.563769 126.906295,117.209151 126.338262,118.820534 C124.835171,123.08428 120.258726,125.427398 115.876636,124.296452 C116.534711,127.066418 118.569104,129.442099 121.529076,130.442394 Z" id="mark"></path>
        </g>
    </g>
</svg>