<svg xmlns="http://www.w3.org/2000/svg" viewBox="0 0 110 110">
  <path fill="#292F2B" fill-rule="evenodd" d="M32.0531945,82.4394482 C33.1286889,86.192257 36.5856524,88.9386667 40.6840742,88.9386667 C45.6420775,88.9386667 49.6613333,84.9194108 49.6613333,79.9614075 C49.6613333,75.8629857 46.9149236,72.4060223 43.1621148,71.3305278 C43.4943573,72.2505578 43.6754653,73.2428616 43.6754653,74.2774653 C43.6754653,79.0687196 39.7913863,82.9527987 35.000132,82.9527987 C33.9655282,82.9527987 32.9732245,82.7716906 32.0531945,82.4394482 Z M51.6918611,62.8007815 C52.7673556,66.5535903 56.224319,69.3 60.3227408,69.3 C65.2807442,69.3 69.3,65.2807442 69.3,60.3227408 C69.3,56.224319 66.5535903,52.7673556 62.8007815,51.6918611 C63.133024,52.6118912 63.314132,53.6041949 63.314132,54.6387987 C63.314132,59.430053 59.430053,63.314132 54.6387987,63.314132 C53.6041949,63.314132 52.6118912,63.133024 51.6918611,62.8007815 Z M56.6491945,85.1087815 C57.7246889,88.8615903 61.1816524,91.608 65.2800742,91.608 C70.2380775,91.608 74.2573333,87.5887442 74.2573333,82.6307408 C74.2573333,78.532319 71.5109236,75.0753556 67.7581148,73.9998611 C68.0903573,74.9198912 68.2714653,75.9121949 68.2714653,76.9467987 C68.2714653,81.738053 64.3873863,85.622132 59.596132,85.622132 C58.5615282,85.622132 57.5692245,85.441024 56.6491945,85.1087815 Z M73.9998611,67.7581148 C75.0753556,71.5109236 78.532319,74.2573333 82.6307408,74.2573333 C87.5887442,74.2573333 91.608,70.2380775 91.608,65.2800742 C91.608,61.1816524 88.8615903,57.7246889 85.1087815,56.6491945 C85.441024,57.5692245 85.622132,58.5615282 85.622132,59.596132 C85.622132,64.3873863 81.738053,68.2714653 76.9467987,68.2714653 C75.9121949,68.2714653 74.9198912,68.0903573 73.9998611,67.7581148 Z M71.3305278,43.1621148 C72.4060223,46.9149236 75.8629857,49.6613333 79.9614075,49.6613333 C84.9194108,49.6613333 88.9386667,45.6420775 88.9386667,40.6840742 C88.9386667,36.5856524 86.192257,33.1286889 82.4394482,32.0531945 C82.7716906,32.9732245 82.9527987,33.9655282 82.9527987,35.000132 C82.9527987,39.7913863 79.0687196,43.6754653 74.2774653,43.6754653 C73.2428616,43.6754653 72.2505578,43.4943573 71.3305278,43.1621148 Z M55,110 C24.6243388,110 0,85.3756612 0,55 C0,24.6243388 24.6243388,0 55,0 C85.3756612,0 110,24.6243388 110,55 C110,85.3756612 85.3756612,110 55,110 Z"/>
</svg>
