<svg xmlns="http://www.w3.org/2000/svg" xmlns:xlink="http://www.w3.org/1999/xlink" viewBox="0 0 1017 110">
  <defs>
    <path id="chronogolf-business---black---fr-a" d="M32.0531945,82.4394482 C33.1286889,86.192257 36.5856524,88.9386667 40.6840742,88.9386667 C45.6420775,88.9386667 49.6613333,84.9194108 49.6613333,79.9614075 C49.6613333,75.8629857 46.9149236,72.4060223 43.1621148,71.3305278 C43.4943573,72.2505578 43.6754653,73.2428616 43.6754653,74.2774653 C43.6754653,79.0687196 39.7913863,82.9527987 35.000132,82.9527987 C33.9655282,82.9527987 32.9732245,82.7716906 32.0531945,82.4394482 Z M51.6918611,62.8007815 C52.7673556,66.5535903 56.224319,69.3 60.3227408,69.3 C65.2807442,69.3 69.3,65.2807442 69.3,60.3227408 C69.3,56.224319 66.5535903,52.7673556 62.8007815,51.6918611 C63.133024,52.6118912 63.314132,53.6041949 63.314132,54.6387987 C63.314132,59.430053 59.430053,63.314132 54.6387987,63.314132 C53.6041949,63.314132 52.6118912,63.133024 51.6918611,62.8007815 Z M56.6491945,85.1087815 C57.7246889,88.8615903 61.1816524,91.608 65.2800742,91.608 C70.2380775,91.608 74.2573333,87.5887442 74.2573333,82.6307408 C74.2573333,78.532319 71.5109236,75.0753556 67.7581148,73.9998611 C68.0903573,74.9198912 68.2714653,75.9121949 68.2714653,76.9467987 C68.2714653,81.738053 64.3873863,85.622132 59.596132,85.622132 C58.5615282,85.622132 57.5692245,85.441024 56.6491945,85.1087815 Z M73.9998611,67.7581148 C75.0753556,71.5109236 78.532319,74.2573333 82.6307408,74.2573333 C87.5887442,74.2573333 91.608,70.2380775 91.608,65.2800742 C91.608,61.1816524 88.8615903,57.7246889 85.1087815,56.6491945 C85.441024,57.5692245 85.622132,58.5615282 85.622132,59.596132 C85.622132,64.3873863 81.738053,68.2714653 76.9467987,68.2714653 C75.9121949,68.2714653 74.9198912,68.0903573 73.9998611,67.7581148 Z M71.3305278,43.1621148 C72.4060223,46.9149236 75.8629857,49.6613333 79.9614075,49.6613333 C84.9194108,49.6613333 88.9386667,45.6420775 88.9386667,40.6840742 C88.9386667,36.5856524 86.192257,33.1286889 82.4394482,32.0531945 C82.7716906,32.9732245 82.9527987,33.9655282 82.9527987,35.000132 C82.9527987,39.7913863 79.0687196,43.6754653 74.2774653,43.6754653 C73.2428616,43.6754653 72.2505578,43.4943573 71.3305278,43.1621148 Z M55,110 C24.6243388,110 0,85.3756612 0,55 C0,24.6243388 24.6243388,0 55,0 C85.3756612,0 110,24.6243388 110,55 C110,85.3756612 85.3756612,110 55,110 Z"/>
  </defs>
  <g fill="none" fill-rule="evenodd">
    <path fill="#292F2B" d="M152.961327,47.7970493 C151.270519,47.7970493 149.673669,48.1096514 148.170729,48.7348651 C146.667788,49.3600788 145.33708,50.266625 144.178563,51.454531 C143.020046,52.6424371 142.096378,54.1116672 141.40753,55.8622655 C140.718683,57.6128639 140.374264,59.6447779 140.374264,61.9580685 C140.374264,64.2713592 140.718683,66.3189033 141.40753,68.1007623 C142.096378,69.8826213 143.020046,71.3831117 144.178563,72.6022784 C145.33708,73.8214451 146.699099,74.7436214 148.264662,75.3688351 C149.830225,75.9940488 151.458386,76.306651 153.149194,76.306651 C154.902625,76.306651 156.452509,76.025309 157.798893,75.4626167 C159.145277,74.8999244 160.272465,74.1965695 161.180492,73.352531 C162.088518,72.5084926 162.824322,71.6019463 163.387925,70.6328651 C163.951527,69.6637839 164.358568,68.7416075 164.609058,67.8663084 L174.190255,71.336227 C173.626653,73.1493467 172.781261,74.931179 171.654056,76.6817773 C170.526851,78.4323756 169.10221,80.0266466 167.38009,81.4646381 C165.657971,82.9026296 163.607114,84.0592576 161.227459,84.9345567 C158.847803,85.8098559 156.155075,86.2474989 153.149194,86.2474989 C149.767578,86.2474989 146.636499,85.6379247 143.755863,84.418758 C140.875227,83.1995913 138.386019,81.4959096 136.288165,79.3076617 C134.190311,77.1194138 132.530839,74.5560761 131.3097,71.6175717 C130.08856,68.6790674 129.478,65.4592652 129.478,61.9580685 C129.478,58.4568719 130.072905,55.2214395 131.262733,52.2516745 C132.452561,49.2819095 134.112033,46.7185718 136.241198,44.5615846 C138.370364,42.4045974 140.843916,40.7321758 143.66193,39.5442698 C146.479943,38.3563638 149.548401,37.7624197 152.867394,37.7624197 C155.935897,37.7624197 158.659936,38.2000627 161.039592,39.0753619 C163.419248,39.9506611 165.48576,41.0916589 167.23919,42.4983897 C168.992621,43.9051205 170.401606,45.5150216 171.466189,47.3281413 C172.530772,49.141261 173.313542,50.9543535 173.814522,52.7674732 L164.045458,56.3311734 C163.794968,55.3308315 163.403583,54.3148745 162.871291,53.2832719 C162.339,52.2516694 161.618852,51.329493 160.710825,50.5167152 C159.802799,49.7039374 158.722577,49.0474729 157.470126,48.5473019 C156.217676,48.047131 154.714758,47.7970493 152.961327,47.7970493 Z M193.76236,84.8407752 L182.866096,84.8407752 L182.866096,16.9429079 L193.76236,16.9429079 L193.76236,43.5768779 C195.327922,41.5761941 197.300502,40.1225941 199.680158,39.2160343 C202.059814,38.3094744 204.439434,37.8562013 206.81909,37.8562013 C209.637103,37.8562013 212.095,38.3251045 214.192854,39.2629251 C216.290709,40.2007456 218.028458,41.4980445 219.406153,43.1548608 C220.783848,44.8116771 221.817104,46.7341804 222.505952,48.9224283 C223.1948,51.1106762 223.539219,53.4551923 223.539219,55.9560471 L223.539219,84.8407752 L212.642955,84.8407752 L212.642955,57.8316788 C212.642955,55.0182172 211.938462,52.6268107 210.529455,50.6573876 C209.120449,48.6879645 206.693862,47.7032677 203.249624,47.7032677 C200.243743,47.7032677 197.9424,48.6879645 196.345526,50.6573876 C194.748651,52.6268107 193.887605,55.0807376 193.76236,58.019242 L193.76236,84.8407752 Z M262.555518,49.9540257 C261.303067,49.7664616 260.113257,49.6726809 258.986052,49.6726809 C254.727721,49.6726809 251.612297,50.8293089 249.639688,53.1425996 C247.667078,55.4558902 246.680789,58.7694731 246.680789,63.0834475 L246.680789,84.8407752 L235.784525,84.8407752 L235.784525,39.1691435 L246.398989,39.1691435 L246.398989,46.4841071 C247.463571,43.9832523 249.185665,42.0451189 251.565321,40.6696488 C253.944976,39.2941787 256.637704,38.606454 259.643585,38.606454 C260.332433,38.606454 260.927338,38.6377142 261.428318,38.7002355 C261.929298,38.7627569 262.305028,38.8252773 262.555518,38.8877987 L262.555518,49.9540257 Z M290.29982,76.4942141 C291.990628,76.4942141 293.603134,76.181612 295.137385,75.5563983 C296.671637,74.9311846 298.033657,74.0090082 299.223484,72.7898415 C300.413312,71.5706748 301.352636,70.0545544 302.041484,68.2414347 C302.730331,66.428315 303.07475,64.3338805 303.07475,61.9580685 C303.07475,59.5822565 302.730331,57.5034522 302.041484,55.7215931 C301.352636,53.9397341 300.413312,52.4392438 299.223484,51.2200771 C298.033657,50.0009104 296.671637,49.0943641 295.137385,48.5004111 C293.603134,47.9064581 291.990628,47.6094861 290.29982,47.6094861 C288.609012,47.6094861 286.996506,47.9064581 285.462255,48.5004111 C283.928003,49.0943641 282.581639,50.0009104 281.423122,51.2200771 C280.264606,52.4392438 279.325282,53.9397341 278.605123,55.7215931 C277.884964,57.5034522 277.52489,59.5822565 277.52489,61.9580685 C277.52489,64.3338805 277.884964,66.428315 278.605123,68.2414347 C279.325282,70.0545544 280.264606,71.5706748 281.423122,72.7898415 C282.581639,74.0090082 283.928003,74.9311846 285.462255,75.5563983 C286.996506,76.181612 288.609012,76.4942141 290.29982,76.4942141 Z M290.29982,37.7624197 C293.744059,37.7624197 296.906448,38.3719939 299.787084,39.5911606 C302.66772,40.8103273 305.172583,42.4983789 307.301749,44.6553662 C309.430915,46.8123534 311.090387,49.360061 312.280214,52.2985653 C313.470042,55.2370697 314.064947,58.4568719 314.064947,61.9580685 C314.064947,65.4592652 313.470042,68.6946975 312.280214,71.6644625 C311.090387,74.6342276 309.430915,77.1975652 307.301749,79.3545525 C305.172583,81.5115397 302.66772,83.1995913 299.787084,84.418758 C296.906448,85.6379247 293.744059,86.2474989 290.29982,86.2474989 C286.918204,86.2474989 283.77147,85.6379247 280.859522,84.418758 C277.947575,83.1995913 275.442712,81.5115397 273.344858,79.3545525 C271.247003,77.1975652 269.603187,74.6342276 268.413359,71.6644625 C267.223531,68.6946975 266.628626,65.4592652 266.628626,61.9580685 C266.628626,58.4568719 267.223531,55.2370697 268.413359,52.2985653 C269.603187,49.360061 271.247003,46.8123534 273.344858,44.6553662 C275.442712,42.4983789 277.947575,40.8103273 280.859522,39.5911606 C283.77147,38.3719939 286.918204,37.7624197 290.29982,37.7624197 Z M334.482451,84.8407752 L323.586187,84.8407752 L323.586187,39.1691435 L334.200651,39.1691435 L334.200651,45.2649465 C335.703592,42.639049 337.691827,40.7478059 340.165417,39.5911606 C342.639006,38.4345153 345.159525,37.8562013 347.727048,37.8562013 C350.545061,37.8562013 352.987303,38.3251045 355.053846,39.2629251 C357.120389,40.2007456 358.826827,41.4980445 360.173211,43.1548608 C361.519596,44.8116771 362.537196,46.7341804 363.226044,48.9224283 C363.914892,51.1106762 364.25931,53.4551923 364.25931,55.9560471 L364.25931,84.8407752 L353.363046,84.8407752 L353.363046,57.8316788 C353.363046,55.0182172 352.658554,52.6268107 351.249547,50.6573876 C349.84054,48.6879645 347.413954,47.7032677 343.969716,47.7032677 C340.83859,47.7032677 338.474625,48.7504849 336.877751,50.8449507 C335.280876,52.9394166 334.482451,55.4871242 334.482451,58.4881499 L334.482451,84.8407752 Z M396.606345,76.4942141 C398.297153,76.4942141 399.909658,76.181612 401.44391,75.5563983 C402.978162,74.9311846 404.340181,74.0090082 405.530009,72.7898415 C406.719837,71.5706748 407.659161,70.0545544 408.348008,68.2414347 C409.036856,66.428315 409.381275,64.3338805 409.381275,61.9580685 C409.381275,59.5822565 409.036856,57.5034522 408.348008,55.7215931 C407.659161,53.9397341 406.719837,52.4392438 405.530009,51.2200771 C404.340181,50.0009104 402.978162,49.0943641 401.44391,48.5004111 C399.909658,47.9064581 398.297153,47.6094861 396.606345,47.6094861 C394.915537,47.6094861 393.303031,47.9064581 391.768779,48.5004111 C390.234528,49.0943641 388.888164,50.0009104 387.729647,51.2200771 C386.57113,52.4392438 385.631807,53.9397341 384.911648,55.7215931 C384.191489,57.5034522 383.831415,59.5822565 383.831415,61.9580685 C383.831415,64.3338805 384.191489,66.428315 384.911648,68.2414347 C385.631807,70.0545544 386.57113,71.5706748 387.729647,72.7898415 C388.888164,74.0090082 390.234528,74.9311846 391.768779,75.5563983 C393.303031,76.181612 394.915537,76.4942141 396.606345,76.4942141 Z M396.606345,37.7624197 C400.050583,37.7624197 403.212973,38.3719939 406.093609,39.5911606 C408.974245,40.8103273 411.479108,42.4983789 413.608274,44.6553662 C415.737439,46.8123534 417.396911,49.360061 418.586739,52.2985653 C419.776567,55.2370697 420.371472,58.4568719 420.371472,61.9580685 C420.371472,65.4592652 419.776567,68.6946975 418.586739,71.6644625 C417.396911,74.6342276 415.737439,77.1975652 413.608274,79.3545525 C411.479108,81.5115397 408.974245,83.1995913 406.093609,84.418758 C403.212973,85.6379247 400.050583,86.2474989 396.606345,86.2474989 C393.224729,86.2474989 390.077994,85.6379247 387.166047,84.418758 C384.2541,83.1995913 381.749237,81.5115397 379.651382,79.3545525 C377.553528,77.1975652 375.909711,74.6342276 374.719884,71.6644625 C373.530056,68.6946975 372.935151,65.4592652 372.935151,61.9580685 C372.935151,58.4568719 373.530056,55.2370697 374.719884,52.2985653 C375.909711,49.360061 377.553528,46.8123534 379.651382,44.6553662 C381.749237,42.4983789 384.2541,40.8103273 387.166047,39.5911606 C390.077994,38.3719939 393.224729,37.7624197 396.606345,37.7624197 Z M436.65591,84.7469936 C437.031645,87.5604552 438.237111,89.9049713 440.272343,91.7806124 C442.307575,93.6562535 444.922026,94.59406 448.115774,94.59406 C456.757682,94.59406 461.078571,90.0300685 461.078571,80.9019486 L461.078571,76.1190878 C460.07661,77.9322075 458.464105,79.4952183 456.241005,80.808167 C454.017906,82.1211158 451.21559,82.7775803 447.833974,82.7775803 C444.765471,82.7775803 441.9475,82.2148964 439.379976,81.0895118 C436.812453,79.9641271 434.589387,78.4167465 432.710711,76.4473233 C430.832036,74.4779002 429.360429,72.133384 428.295846,69.4137045 C427.231263,66.6940249 426.69898,63.7399346 426.69898,60.5513448 C426.69898,57.4877977 427.215608,54.6118578 428.248879,51.923439 C429.282151,49.2350201 430.722447,46.8905039 432.569811,44.8898201 C434.417176,42.8891363 436.640242,41.2948653 439.239076,40.1069593 C441.837911,38.9190533 444.702848,38.3251092 447.833974,38.3251092 C451.403458,38.3251092 454.299706,38.9659436 456.522805,40.2476317 C458.745905,41.5293198 460.35841,43.1079606 461.360371,44.9836017 L461.360371,39.1691435 L471.880901,39.1691435 L471.880901,80.5268223 C471.880901,83.5903694 471.458206,86.5288296 470.612802,89.3422912 C469.767398,92.1557528 468.421034,94.6565701 466.573669,96.844818 C464.726305,99.0330659 462.315374,100.783638 459.340805,102.096587 C456.366235,103.409535 452.718528,104.066 448.397574,104.066 C445.391693,104.066 442.620688,103.628357 440.084476,102.753058 C437.548264,101.877759 435.325198,100.68987 433.415211,99.1893576 C431.505224,97.6888447 429.970996,95.9226426 428.812479,93.8906981 C427.653962,91.8587536 426.918159,89.6861686 426.605046,87.3728779 L436.65591,84.7469936 Z M449.618707,73.4932034 C453.125568,73.4932034 455.959195,72.3209453 458.119672,69.976394 C460.280148,67.6318427 461.360371,64.490191 461.360371,60.5513448 C461.360371,58.6131823 461.062918,56.8469801 460.468004,55.2526852 C459.87309,53.6583903 459.05901,52.2985709 458.025738,51.1731863 C456.992467,50.0478017 455.75569,49.1881457 454.315373,48.5941927 C452.875055,48.0002397 451.309515,47.7032677 449.618707,47.7032677 C446.111846,47.7032677 443.246909,48.8598956 441.023809,51.1731863 C438.80071,53.4864769 437.689177,56.6124985 437.689177,60.5513448 C437.689177,64.5527124 438.785054,67.7099941 440.976843,70.0232848 C443.168631,72.3365754 446.049223,73.4932034 449.618707,73.4932034 Z M504.321869,76.4942141 C506.012677,76.4942141 507.625183,76.181612 509.159434,75.5563983 C510.693686,74.9311846 512.055706,74.0090082 513.245533,72.7898415 C514.435361,71.5706748 515.374685,70.0545544 516.063533,68.2414347 C516.75238,66.428315 517.096799,64.3338805 517.096799,61.9580685 C517.096799,59.5822565 516.75238,57.5034522 516.063533,55.7215931 C515.374685,53.9397341 514.435361,52.4392438 513.245533,51.2200771 C512.055706,50.0009104 510.693686,49.0943641 509.159434,48.5004111 C507.625183,47.9064581 506.012677,47.6094861 504.321869,47.6094861 C502.631061,47.6094861 501.018555,47.9064581 499.484304,48.5004111 C497.950052,49.0943641 496.603688,50.0009104 495.445171,51.2200771 C494.286655,52.4392438 493.347331,53.9397341 492.627172,55.7215931 C491.907013,57.5034522 491.546939,59.5822565 491.546939,61.9580685 C491.546939,64.3338805 491.907013,66.428315 492.627172,68.2414347 C493.347331,70.0545544 494.286655,71.5706748 495.445171,72.7898415 C496.603688,74.0090082 497.950052,74.9311846 499.484304,75.5563983 C501.018555,76.181612 502.631061,76.4942141 504.321869,76.4942141 Z M504.321869,37.7624197 C507.766108,37.7624197 510.928497,38.3719939 513.809133,39.5911606 C516.689769,40.8103273 519.194632,42.4983789 521.323798,44.6553662 C523.452964,46.8123534 525.112436,49.360061 526.302263,52.2985653 C527.492091,55.2370697 528.086996,58.4568719 528.086996,61.9580685 C528.086996,65.4592652 527.492091,68.6946975 526.302263,71.6644625 C525.112436,74.6342276 523.452964,77.1975652 521.323798,79.3545525 C519.194632,81.5115397 516.689769,83.1995913 513.809133,84.418758 C510.928497,85.6379247 507.766108,86.2474989 504.321869,86.2474989 C500.940253,86.2474989 497.793519,85.6379247 494.881571,84.418758 C491.969624,83.1995913 489.464761,81.5115397 487.366907,79.3545525 C485.269052,77.1975652 483.625236,74.6342276 482.435408,71.6644625 C481.24558,68.6946975 480.650675,65.4592652 480.650675,61.9580685 C480.650675,58.4568719 481.24558,55.2370697 482.435408,52.2985653 C483.625236,49.360061 485.269052,46.8123534 487.366907,44.6553662 C489.464761,42.4983789 491.969624,40.8103273 494.881571,39.5911606 C497.793519,38.3719939 500.940253,37.7624197 504.321869,37.7624197 Z M537.608236,84.8407752 L537.608236,16.9429079 L548.5045,16.9429079 L548.5045,84.8407752 L537.608236,84.8407752 Z M581.884801,26.2272848 C581.133331,26.2272848 580.366216,26.3210654 579.583435,26.5086296 C578.800653,26.6961937 578.080505,27.0556861 577.422969,27.5871178 C576.765432,28.1185494 576.217494,28.8375344 575.779136,29.7440942 C575.340778,30.6506541 575.121603,31.7916519 575.121603,33.1671221 L575.121603,39.1691435 L585.736067,39.1691435 L585.736067,48.6410835 L575.121603,48.6410835 L575.121603,84.8407752 L564.131406,84.8407752 L564.131406,48.6410835 L556.147074,48.6410835 L556.147074,39.1691435 L564.131406,39.1691435 L564.131406,32.8857773 C564.131406,30.3224012 564.52279,28.0247753 565.305572,25.9928308 C566.088353,23.9608863 567.184231,22.2415745 568.593238,20.8348437 C570.002244,19.4281129 571.677372,18.3496354 573.61867,17.599379 C575.559968,16.8491226 577.720412,16.474 580.100068,16.474 C581.477764,16.474 582.683229,16.5834108 583.716501,16.8022355 C584.749772,17.0210603 585.454265,17.2242517 585.83,17.4118158 L585.83,26.6961927 C585.516887,26.57115 585.047226,26.4617392 584.421,26.3679572 C583.794775,26.2741751 582.949384,26.2272848 581.884801,26.2272848 Z"/>
    <path fill="#78887D" d="M636.122,58.454 C635.996666,55.195317 634.90001,52.4536778 632.832,50.229 C630.76399,48.0043222 627.724687,46.892 623.714,46.892 C621.833991,46.892 620.157674,47.2209967 618.685,47.879 C617.212326,48.5370033 615.959005,49.4143279 614.925,50.511 C613.890995,51.6076722 613.06067,52.8453264 612.434,54.224 C611.80733,55.6026736 611.462667,57.0126595 611.4,58.454 L636.122,58.454 Z M645.052,72.836 C644.42533,74.8413434 643.501006,76.705658 642.279,78.429 C641.056994,80.1523419 639.584342,81.6563269 637.861,82.941 C636.137658,84.2256731 634.179344,85.2439962 631.986,85.996 C629.792656,86.7480038 627.380013,87.124 624.748,87.124 C621.739985,87.124 618.857347,86.5913387 616.1,85.526 C613.342653,84.4606613 610.914344,82.8940103 608.815,80.826 C606.715656,78.7579897 605.055006,76.220015 603.833,73.212 C602.610994,70.203985 602,66.7886858 602,62.966 C602,59.3939821 602.595327,56.1510146 603.786,53.237 C604.976673,50.3229854 606.55899,47.8163438 608.533,45.717 C610.50701,43.6176562 612.809987,41.9883391 615.442,40.829 C618.074013,39.6696609 620.799986,39.09 623.62,39.09 C627.066684,39.09 630.152986,39.6696609 632.879,40.829 C635.605014,41.9883391 637.876658,43.6019897 639.694,45.67 C641.511342,47.7380103 642.905662,50.2289854 643.877,53.143 C644.848338,56.0570146 645.334,59.2686491 645.334,62.778 C645.334,63.3420028 645.318333,63.8746642 645.287,64.376 C645.255667,64.8773358 645.208667,65.2846651 645.146,65.598 L611.118,65.598 C611.180667,67.6033434 611.556663,69.4519915 612.246,71.144 C612.935337,72.8360085 613.890994,74.2929939 615.113,75.515 C616.335006,76.7370061 617.776325,77.6769967 619.437,78.335 C621.097675,78.9930033 622.867991,79.322 624.748,79.322 C628.445352,79.322 631.265324,78.4446754 633.208,76.69 C635.150676,74.9353246 636.560662,72.7733462 637.438,70.204 L645.052,72.836 Z M664.45,85.714 L655.614,85.714 L655.614,40.5 L664.262,40.5 L664.262,46.986 C665.891341,44.1659859 667.959321,42.1606726 670.466,40.97 C672.972679,39.7793274 675.541987,39.184 678.174,39.184 C680.86868,39.184 683.234323,39.6383288 685.271,40.547 C687.307677,41.4556712 688.99966,42.708992 690.347,44.307 C691.69434,45.905008 692.696997,47.8006557 693.355,49.994 C694.013003,52.1873443 694.342,54.5373208 694.342,57.044 L694.342,85.714 L685.506,85.714 L685.506,58.548 C685.506,56.9813255 685.333668,55.5086736 684.989,54.13 C684.644332,52.7513264 684.049004,51.5450052 683.203,50.511 C682.356996,49.4769948 681.26034,48.6623363 679.913,48.067 C678.56566,47.4716637 676.920676,47.174 674.978,47.174 C673.223325,47.174 671.688007,47.5029967 670.372,48.161 C669.055993,48.8190033 667.959338,49.7119944 667.082,50.84 C666.204662,51.9680056 665.546669,53.2839925 665.108,54.788 C664.669331,56.2920075 664.45,57.8899915 664.45,59.582 L664.45,85.714 Z M719.286,40.5 L729.062,40.5 L729.062,48.49 L719.286,48.49 L719.286,71.99 C719.286,74.0580103 719.755995,75.6089948 720.696,76.643 C721.636005,77.6770052 723.265322,78.194 725.584,78.194 C726.148003,78.194 726.774663,78.162667 727.464,78.1 C728.153337,78.037333 728.685998,77.943334 729.062,77.818 L729.062,85.338 C728.685998,85.463334 727.965339,85.6356656 726.9,85.855 C725.834661,86.0743344 724.550008,86.184 723.046,86.184 C719.160647,86.184 716.090011,85.0716778 713.834,82.847 C711.577989,80.6223222 710.45,77.4420207 710.45,73.306 L710.45,48.49 L701.802,48.49 L701.802,40.5 L704.246,40.5 C706.690012,40.5 708.460328,39.8420066 709.557,38.526 C710.653672,37.2099934 711.202,35.5493434 711.202,33.544 L711.202,26.212 L719.286,26.212 L719.286,40.5 Z M763.97,49.43 C762.653993,49.2419991 761.36934,49.148 760.116,49.148 C756.418648,49.148 753.426345,50.2289892 751.139,52.391 C748.851655,54.5530108 747.708,58.1093086 747.708,63.06 L747.708,85.714 L738.872,85.714 L738.872,40.5 L747.52,40.5 L747.52,48.396 C748.334671,46.6413246 749.290328,45.2156722 750.387,44.119 C751.483672,43.0223278 752.627327,42.1450033 753.818,41.487 C755.008673,40.8289967 756.23066,40.3746679 757.484,40.124 C758.73734,39.8733321 759.927994,39.748 761.056,39.748 C761.68267,39.748 762.262331,39.779333 762.795,39.842 C763.327669,39.904667 763.719332,39.967333 763.97,40.03 L763.97,49.43 Z M802.356,58.454 C802.230666,55.195317 801.13401,52.4536778 799.066,50.229 C796.99799,48.0043222 793.958687,46.892 789.948,46.892 C788.067991,46.892 786.391674,47.2209967 784.919,47.879 C783.446326,48.5370033 782.193005,49.4143279 781.159,50.511 C780.124995,51.6076722 779.29467,52.8453264 778.668,54.224 C778.04133,55.6026736 777.696667,57.0126595 777.634,58.454 L802.356,58.454 Z M811.286,72.836 C810.65933,74.8413434 809.735006,76.705658 808.513,78.429 C807.290994,80.1523419 805.818342,81.6563269 804.095,82.941 C802.371658,84.2256731 800.413344,85.2439962 798.22,85.996 C796.026656,86.7480038 793.614013,87.124 790.982,87.124 C787.973985,87.124 785.091347,86.5913387 782.334,85.526 C779.576653,84.4606613 777.148344,82.8940103 775.049,80.826 C772.949656,78.7579897 771.289006,76.220015 770.067,73.212 C768.844994,70.203985 768.234,66.7886858 768.234,62.966 C768.234,59.3939821 768.829327,56.1510146 770.02,53.237 C771.210673,50.3229854 772.79299,47.8163438 774.767,45.717 C776.74101,43.6176562 779.043987,41.9883391 781.676,40.829 C784.308013,39.6696609 787.033986,39.09 789.854,39.09 C793.300684,39.09 796.386986,39.6696609 799.113,40.829 C801.839014,41.9883391 804.110658,43.6019897 805.928,45.67 C807.745342,47.7380103 809.139662,50.2289854 810.111,53.143 C811.082338,56.0570146 811.568,59.2686491 811.568,62.778 C811.568,63.3420028 811.552333,63.8746642 811.521,64.376 C811.489667,64.8773358 811.442667,65.2846651 811.38,65.598 L777.352,65.598 C777.414667,67.6033434 777.790663,69.4519915 778.48,71.144 C779.169337,72.8360085 780.124994,74.2929939 781.347,75.515 C782.569006,76.7370061 784.010325,77.6769967 785.671,78.335 C787.331675,78.9930033 789.101991,79.322 790.982,79.322 C794.679352,79.322 797.499324,78.4446754 799.442,76.69 C801.384676,74.9353246 802.794662,72.7733462 803.672,70.204 L811.286,72.836 Z M821.848,103.574 L821.848,40.5 L830.402,40.5 L830.402,47.55 C831.65534,45.2939887 833.566654,43.3826745 836.136,41.816 C838.705346,40.2493255 841.838648,39.466 845.536,39.466 C848.920017,39.466 851.91232,40.0769939 854.513,41.299 C857.11368,42.5210061 859.275658,44.1973227 860.999,46.328 C862.722342,48.4586773 864.038329,50.9653189 864.947,53.848 C865.855671,56.7306811 866.31,59.801317 866.31,63.06 C866.31,66.4440169 865.840005,69.5773189 864.9,72.46 C863.959995,75.3426811 862.581342,77.8649892 860.764,80.027 C858.946658,82.1890108 856.73768,83.8809939 854.137,85.103 C851.53632,86.3250061 848.57535,86.936 845.254,86.936 C841.744649,86.936 838.736679,86.2153405 836.23,84.774 C833.723321,83.3326595 831.84334,81.6093434 830.59,79.604 L830.59,103.574 L821.848,103.574 Z M857.286,63.06 C857.286,60.8039887 856.97267,58.7203429 856.346,56.809 C855.71933,54.8976571 854.842006,53.2370071 853.714,51.827 C852.585994,50.416993 851.191675,49.3046707 849.531,48.49 C847.870325,47.6753293 846.00601,47.268 843.938,47.268 C841.932657,47.268 840.099675,47.6753293 838.439,48.49 C836.778325,49.3046707 835.352673,50.416993 834.162,51.827 C832.971327,53.2370071 832.06267,54.8976571 831.436,56.809 C830.80933,58.7203429 830.496,60.8039887 830.496,63.06 C830.496,65.3786783 830.80933,67.5249901 831.436,69.499 C832.06267,71.4730099 832.971327,73.1649929 834.162,74.575 C835.352673,75.9850071 836.778325,77.0816627 838.439,77.865 C840.099675,78.6483372 841.932657,79.04 843.938,79.04 C846.00601,79.04 847.854659,78.6483372 849.484,77.865 C851.113341,77.0816627 852.507661,75.9850071 853.667,74.575 C854.826339,73.1649929 855.71933,71.4730099 856.346,69.499 C856.97267,67.5249901 857.286,65.3786783 857.286,63.06 Z M901.688,49.43 C900.371993,49.2419991 899.08734,49.148 897.834,49.148 C894.136648,49.148 891.144345,50.2289892 888.857,52.391 C886.569655,54.5530108 885.426,58.1093086 885.426,63.06 L885.426,85.714 L876.59,85.714 L876.59,40.5 L885.238,40.5 L885.238,48.396 C886.052671,46.6413246 887.008328,45.2156722 888.105,44.119 C889.201672,43.0223278 890.345327,42.1450033 891.536,41.487 C892.726673,40.8289967 893.94866,40.3746679 895.202,40.124 C896.45534,39.8733321 897.645994,39.748 898.774,39.748 C899.40067,39.748 899.980331,39.779333 900.513,39.842 C901.045669,39.904667 901.437332,39.967333 901.688,40.03 L901.688,49.43 Z M910.088,85.714 L910.088,40.5 L918.83,40.5 L918.83,85.714 L910.088,85.714 Z M908.114,23.392 C908.114,21.5746576 908.724994,20.0550061 909.947,18.833 C911.169006,17.6109939 912.657325,17 914.412,17 C916.229342,17 917.748994,17.6109939 918.971,18.833 C920.193006,20.0550061 920.804,21.5746576 920.804,23.392 C920.804,25.1466754 920.193006,26.6349939 918.971,27.857 C917.748994,29.0790061 916.229342,29.69 914.412,29.69 C912.657325,29.69 911.169006,29.0790061 909.947,27.857 C908.724994,26.6349939 908.114,25.1466754 908.114,23.392 Z M936.63,71.144 C936.943335,73.5253452 937.977325,75.5306585 939.732,77.16 C941.486675,78.7893415 943.961984,79.604 947.158,79.604 C949.664679,79.604 951.575993,79.0086726 952.892,77.818 C954.208007,76.6273274 954.866,75.2173415 954.866,73.588 C954.866,72.1466595 954.364672,70.9246717 953.362,69.922 C952.359328,68.9193283 950.918009,68.1986689 949.038,67.76 L941.33,66.068 C937.757982,65.3159962 934.98501,63.8120113 933.011,61.556 C931.03699,59.2999887 930.05,56.574016 930.05,53.378 C930.05,51.4353236 930.472996,49.6023419 931.319,47.879 C932.165004,46.155658 933.308659,44.6360066 934.75,43.32 C936.191341,42.0039934 937.89899,40.9700038 939.873,40.218 C941.84701,39.4659962 943.930656,39.09 946.124,39.09 C949.194682,39.09 951.779656,39.5286623 953.879,40.406 C955.978344,41.2833377 957.685993,42.3643269 959.002,43.649 C960.318007,44.9336731 961.304997,46.2653264 961.963,47.644 C962.621003,49.0226736 963.075332,50.2133283 963.326,51.216 L955.524,54.13 C955.398666,53.5659972 955.179335,52.8453377 954.866,51.968 C954.552665,51.0906623 954.051337,50.2603373 953.362,49.477 C952.672663,48.6936628 951.732673,48.0200028 950.542,47.456 C949.351327,46.8919972 947.878675,46.61 946.124,46.61 C943.867989,46.61 942.050674,47.2209939 940.672,48.443 C939.293326,49.6650061 938.604,51.0593255 938.604,52.626 C938.604,55.5086811 940.327316,57.3259962 943.774,58.078 L951.106,59.676 C955.242021,60.5533377 958.359656,62.1669883 960.459,64.517 C962.558344,66.8670118 963.608,69.7339831 963.608,73.118 C963.608,74.7473415 963.263337,76.3766585 962.574,78.006 C961.884663,79.6353415 960.86634,81.1393264 959.519,82.518 C958.17166,83.8966736 956.46401,85.0089958 954.396,85.855 C952.32799,86.7010042 949.884014,87.124 947.064,87.124 C943.930651,87.124 941.251678,86.6853377 939.027,85.808 C936.802322,84.9306623 934.953674,83.8340066 933.481,82.518 C932.008326,81.2019934 930.880337,79.776341 930.097,78.241 C929.313663,76.705659 928.828001,75.2800066 928.64,73.964 L936.63,71.144 Z M1004.344,58.454 C1004.21867,55.195317 1003.12201,52.4536778 1001.054,50.229 C998.98599,48.0043222 995.946687,46.892 991.936,46.892 C990.055991,46.892 988.379674,47.2209967 986.907,47.879 C985.434326,48.5370033 984.181005,49.4143279 983.147,50.511 C982.112995,51.6076722 981.28267,52.8453264 980.656,54.224 C980.02933,55.6026736 979.684667,57.0126595 979.622,58.454 L1004.344,58.454 Z M1013.274,72.836 C1012.64733,74.8413434 1011.72301,76.705658 1010.501,78.429 C1009.27899,80.1523419 1007.80634,81.6563269 1006.083,82.941 C1004.35966,84.2256731 1002.40134,85.2439962 1000.208,85.996 C998.014656,86.7480038 995.602013,87.124 992.97,87.124 C989.961985,87.124 987.079347,86.5913387 984.322,85.526 C981.564653,84.4606613 979.136344,82.8940103 977.037,80.826 C974.937656,78.7579897 973.277006,76.220015 972.055,73.212 C970.832994,70.203985 970.222,66.7886858 970.222,62.966 C970.222,59.3939821 970.817327,56.1510146 972.008,53.237 C973.198673,50.3229854 974.78099,47.8163438 976.755,45.717 C978.72901,43.6176562 981.031987,41.9883391 983.664,40.829 C986.296013,39.6696609 989.021986,39.09 991.842,39.09 C995.288684,39.09 998.374986,39.6696609 1001.101,40.829 C1003.82701,41.9883391 1006.09866,43.6019897 1007.916,45.67 C1009.73334,47.7380103 1011.12766,50.2289854 1012.099,53.143 C1013.07034,56.0570146 1013.556,59.2686491 1013.556,62.778 C1013.556,63.3420028 1013.54033,63.8746642 1013.509,64.376 C1013.47767,64.8773358 1013.43067,65.2846651 1013.368,65.598 L979.34,65.598 C979.402667,67.6033434 979.778663,69.4519915 980.468,71.144 C981.157337,72.8360085 982.112994,74.2929939 983.335,75.515 C984.557006,76.7370061 985.998325,77.6769967 987.659,78.335 C989.319675,78.9930033 991.089991,79.322 992.97,79.322 C996.667352,79.322 999.487324,78.4446754 1001.43,76.69 C1003.37268,74.9353246 1004.78266,72.7733462 1005.66,70.204 L1013.274,72.836 Z"/>
    <use fill="#292F2B" xlink:href="#chronogolf-business---black---fr-a"/>
  </g>
</svg>
